ffmpeg started on 2016-11-27 at 11:15:27
Report written to "Output/NVENCh264/results/ffmpeg/crowd_run_2160p50llhq9000k.log"
Command line:
Tools/ffmpeg/ffmpeg -benchmark -y -i Input/y4m/crowd_run_2160p50.y4m -c:v h264_nvenc -preset llhq -b:v 9000k -an Output/NVENCh264/encoded/crowd_run_2160p50llhq9000k.mkv
ffmpeg version N-82227-gdb23fde Copyright (c) 2000-2016 the FFmpeg developers
  built with gcc 5.4.0 (Ubuntu 5.4.0-6ubuntu1~16.04.2) 20160609
  configuration: --prefix=/home/jaroslav/ffmpeg_build --pkg-config-flags=--static --extra-cflags=-I/home/jaroslav/ffmpeg_build/include --extra-ldflags=-L/home/jaroslav/ffmpeg_build/lib --bindir=/home/jaroslav/bin --enable-gpl --enable-libass --enable-libfdk-aac --enable-libfreetype --enable-libmp3lame --enable-libopus --enable-libtheora --enable-libvorbis --enable-libvpx --enable-libx264 --enable-libx265 --enable-nvenc --enable-libmfx --enable-libxvid --enable-libgsm --enable-libopencore-amrnb --enable-version3 --enable-nonfree
  libavutil      55. 35.100 / 55. 35.100
  libavcodec     57. 66.101 / 57. 66.101
  libavformat    57. 57.100 / 57. 57.100
  libavdevice    57.  2.100 / 57.  2.100
  libavfilter     6. 66.100 /  6. 66.100
  libswscale      4.  3.100 /  4.  3.100
  libswresample   2.  4.100 /  2.  4.100
  libpostproc    54.  2.100 / 54.  2.100
Input #0, yuv4mpegpipe, from 'Input/y4m/crowd_run_2160p50.y4m':
  Duration: 00:00:10.00, start: 0.000000, bitrate: 4976642 kb/s
    Stream #0:0: Video: rawvideo (I420 / 0x30323449), yuv420p(progressive), 3840x2160, SAR 1:1 DAR 16:9, 50 fps, 50 tbr, 50 tbn, 50 tbc
[h264_nvenc @ 0x2c451c0] The variable bitrate rate-control requires the 'qmin' and/or 'qmax' option set.
Output #0, matroska, to 'Output/NVENCh264/encoded/crowd_run_2160p50llhq9000k.mkv':
  Metadata:
    encoder         : Lavf57.57.100
    Stream #0:0: Video: h264 (h264_nvenc) (Main) (H264 / 0x34363248), yuv420p, 3840x2160 [SAR 1:1 DAR 16:9], q=-1--1, 9000 kb/s, 50 fps, 1k tbn, 50 tbc
    Metadata:
      encoder         : Lavc57.66.101 h264_nvenc
    Side data:
      cpb: bitrate max/min/avg: 0/0/9000000 buffer size: 18000000 vbv_delay: -1
Stream mapping:
  Stream #0:0 -> #0:0 (rawvideo (native) -> h264 (h264_nvenc))
Press [q] to stop, [?] for help
frame=   12 fps=0.0 q=0.0 size=       0kB time=00:00:00.00 bitrate=N/A speed=   0x    frame=   28 fps= 27 q=0.0 size=       0kB time=00:00:00.00 bitrate=N/A speed=   0x    frame=   45 fps= 29 q=44.0 size=       1kB time=00:00:00.28 bitrate=  21.3kbits/s speed=0.18x    frame=   63 fps= 30 q=44.0 size=       1kB time=00:00:00.64 bitrate=   9.3kbits/s speed=0.307x    frame=   81 fps= 31 q=44.0 size=       1kB time=00:00:01.00 bitrate=   6.0kbits/s speed=0.384x    frame=   99 fps= 32 q=43.0 size=       1kB time=00:00:01.36 bitrate=   4.4kbits/s speed=0.436x    frame=  117 fps= 32 q=44.0 size=       1kB time=00:00:01.72 bitrate=   3.5kbits/s speed=0.472x    frame=  135 fps= 32 q=44.0 size=       1kB time=00:00:02.08 bitrate=   2.9kbits/s speed= 0.5x    frame=  145 fps= 18 q=43.0 size=       1kB time=00:00:02.28 bitrate=   2.6kbits/s speed=0.278x    frame=  146 fps= 16 q=44.0 size=       1kB time=00:00:02.30 bitrate=   2.6kbits/s speed=0.26x    frame=  163 fps= 17 q=44.0 size=       1kB time=00:00:02.64 bitrate=   2.3kbits/s speed=0.282x    frame=  180 fps= 18 q=44.0 size=       1kB time=00:00:02.98 bitrate=   2.0kbits/s speed=0.302x    frame=  197 fps= 19 q=43.0 size=       1kB time=00:00:03.32 bitrate=   1.8kbits/s speed=0.32x    frame=  214 fps= 20 q=44.0 size=       1kB time=00:00:03.66 bitrate=   1.6kbits/s speed=0.336x    frame=  232 fps= 20 q=43.0 size=       1kB time=00:00:04.02 bitrate=   1.5kbits/s speed=0.352x    frame=  250 fps= 21 q=43.0 size=       1kB time=00:00:04.38 bitrate=   1.4kbits/s speed=0.366x    frame=  267 fps= 21 q=43.0 size=    5125kB time=00:00:04.72 bitrate=8893.5kbits/s speed=0.379x    frame=  283 fps= 22 q=44.0 size=    5469kB time=00:00:05.04 bitrate=8887.2kbits/s speed=0.388x    frame=  300 fps= 22 q=44.0 size=    5469kB time=00:00:05.38 bitrate=8325.7kbits/s speed=0.399x    frame=  310 fps= 22 q=44.0 size=    5469kB time=00:00:05.58 bitrate=8027.3kbits/s speed=0.398x    frame=  328 fps= 23 q=43.0 size=    5469kB time=00:00:05.94 bitrate=7540.9kbits/s speed=0.409x    frame=  346 fps= 23 q=44.0 size=    5469kB time=00:00:06.30 bitrate=7110.0kbits/s speed=0.419x    frame=  364 fps= 23 q=44.0 size=    5469kB time=00:00:06.66 bitrate=6725.8kbits/s speed=0.428x    frame=  382 fps= 24 q=43.0 size=    5469kB time=00:00:07.02 bitrate=6380.9kbits/s speed=0.436x    frame=  400 fps= 24 q=44.0 size=    5469kB time=00:00:07.38 bitrate=6069.7kbits/s speed=0.444x    frame=  409 fps= 24 q=43.0 size=    5469kB time=00:00:07.56 bitrate=5925.2kbits/s speed=0.441x    frame=  427 fps= 24 q=44.0 size=    5469kB time=00:00:07.92 bitrate=5655.9kbits/s speed=0.448x    frame=  445 fps= 24 q=44.0 size=    5469kB time=00:00:08.28 bitrate=5410.0kbits/s speed=0.455x    frame=  463 fps= 25 q=44.0 size=    5469kB time=00:00:08.64 bitrate=5184.6kbits/s speed=0.462x    frame=  481 fps= 25 q=44.0 size=    5469kB time=00:00:09.00 bitrate=4977.3kbits/s speed=0.469x    frame=  499 fps= 25 q=44.0 size=    5469kB time=00:00:09.36 bitrate=4785.9kbits/s speed=0.475x    frame=  500 fps= 25 q=44.0 Lsize=   10987kB time=00:00:09.98 bitrate=9017.9kbits/s speed=0.504x    
video:10983kB audio:0kB subtitle:0kB other streams:0kB global headers:0kB muxing overhead: 0.043233%
bench: utime=1.168s
bench: maxrss=1408800kB
